<svg width="121" height="38" viewBox="0 0 121 38" fill="none" xmlns="http://www.w3.org/2000/svg">
<path d="M20.4334 7.36185C20.3171 7.25833 20.1624 7.20056 20.0014 7.20056C19.8404 7.20056 19.6857 7.25833 19.5694 7.36185L5.18655 20.1451C5.12547 20.1995 5.07688 20.2648 5.04371 20.3371C5.01054 20.4095 4.99349 20.4873 4.99358 20.566L4.99124 32.5635C4.99124 33.1804 5.25463 33.772 5.72347 34.2082C6.19231 34.6444 6.8282 34.8895 7.49124 34.8895H14.9991C15.3306 34.8895 15.6485 34.7669 15.8829 34.5488C16.1174 34.3307 16.2491 34.0349 16.2491 33.7265V23.8412C16.2491 23.687 16.3149 23.5391 16.4321 23.43C16.5493 23.321 16.7083 23.2597 16.8741 23.2597H23.1241C23.2898 23.2597 23.4488 23.321 23.566 23.43C23.6832 23.5391 23.7491 23.687 23.7491 23.8412V33.7265C23.7491 34.0349 23.8807 34.3307 24.1152 34.5488C24.3496 34.7669 24.6675 34.8895 24.9991 34.8895H32.5037C33.1668 34.8895 33.8027 34.6444 34.2715 34.2082C34.7403 33.772 35.0037 33.1804 35.0037 32.5635V20.566C35.0038 20.4873 34.9868 20.4095 34.9536 20.3371C34.9204 20.2648 34.8719 20.1995 34.8108 20.1451L20.4334 7.36185Z" fill="#373737"/>
<path d="M38.3514 17.7465L32.5076 12.5451V4.65212C32.5076 4.34368 32.3759 4.04787 32.1415 3.82977C31.9071 3.61167 31.5892 3.48915 31.2576 3.48915H27.5076C27.1761 3.48915 26.8582 3.61167 26.6238 3.82977C26.3893 4.04787 26.2576 4.34368 26.2576 4.65212V6.97807L21.7326 2.95272C21.3092 2.55441 20.6795 2.32617 19.9991 2.32617C19.3209 2.32617 18.6928 2.55441 18.2694 2.95345L1.65218 17.745C1.16624 18.1812 1.1053 18.8986 1.54749 19.371C1.65853 19.4903 1.79449 19.5873 1.9471 19.6561C2.09971 19.7249 2.26577 19.7641 2.43518 19.7713C2.60459 19.7785 2.7738 19.7536 2.93252 19.698C3.09125 19.6424 3.23615 19.5574 3.35843 19.4481L19.5694 5.0359C19.6857 4.93238 19.8404 4.87461 20.0014 4.87461C20.1624 4.87461 20.3171 4.93238 20.4334 5.0359L36.6459 19.4481C36.8847 19.6611 37.2046 19.7774 37.5355 19.7714C37.8663 19.7654 38.181 19.6377 38.4108 19.4161C38.8905 18.9538 38.8506 18.1906 38.3514 17.7465Z" fill="#373737"/>
<path d="M49.768 18.952H55.696V27.352C54.768 27.656 53.832 27.88 52.888 28.024C51.944 28.168 50.872 28.24 49.672 28.24C47.896 28.24 46.4 27.888 45.184 27.184C43.968 26.464 43.04 25.448 42.4 24.136C41.776 22.808 41.464 21.24 41.464 19.432C41.464 17.64 41.816 16.088 42.52 14.776C43.224 13.464 44.232 12.448 45.544 11.728C46.872 10.992 48.472 10.624 50.344 10.624C51.304 10.624 52.208 10.712 53.056 10.888C53.92 11.064 54.72 11.312 55.456 11.632L54.64 13.504C54.032 13.232 53.344 13 52.576 12.808C51.824 12.616 51.04 12.52 50.224 12.52C48.864 12.52 47.696 12.8 46.72 13.36C45.744 13.92 45 14.72 44.488 15.76C43.976 16.784 43.72 18.008 43.72 19.432C43.72 20.792 43.936 22 44.368 23.056C44.816 24.096 45.512 24.912 46.456 25.504C47.4 26.08 48.64 26.368 50.176 26.368C50.688 26.368 51.136 26.352 51.52 26.32C51.92 26.272 52.28 26.216 52.6 26.152C52.936 26.088 53.248 26.024 53.536 25.96V20.872H49.768V18.952ZM64.3729 14.92C65.9409 14.92 67.1009 15.264 67.8529 15.952C68.6049 16.64 68.9809 17.736 68.9809 19.24V28H67.4449L67.0369 26.176H66.9409C66.5729 26.64 66.1889 27.032 65.7889 27.352C65.4049 27.656 64.9569 27.88 64.4449 28.024C63.9489 28.168 63.3409 28.24 62.6209 28.24C61.8529 28.24 61.1569 28.104 60.5329 27.832C59.9249 27.56 59.4449 27.144 59.0929 26.584C58.7409 26.008 58.5649 25.288 58.5649 24.424C58.5649 23.144 59.0689 22.16 60.0769 21.472C61.0849 20.768 62.6369 20.384 64.7329 20.32L66.9169 20.248V19.48C66.9169 18.408 66.6849 17.664 66.2209 17.248C65.7569 16.832 65.1009 16.624 64.2529 16.624C63.5809 16.624 62.9409 16.728 62.3329 16.936C61.7249 17.128 61.1569 17.352 60.6289 17.608L59.9809 16.024C60.5409 15.72 61.2049 15.464 61.9729 15.256C62.7409 15.032 63.5409 14.92 64.3729 14.92ZM64.9969 21.784C63.3969 21.848 62.2849 22.104 61.6609 22.552C61.0529 23 60.7489 23.632 60.7489 24.448C60.7489 25.168 60.9649 25.696 61.3969 26.032C61.8449 26.368 62.4129 26.536 63.1009 26.536C64.1889 26.536 65.0929 26.24 65.8129 25.648C66.5329 25.04 66.8929 24.112 66.8929 22.864V21.712L64.9969 21.784ZM81.3301 24.448C81.3301 25.28 81.1221 25.976 80.7061 26.536C80.2901 27.096 79.6981 27.52 78.9301 27.808C78.1621 28.096 77.2501 28.24 76.1941 28.24C75.2981 28.24 74.5221 28.168 73.8661 28.024C73.2261 27.88 72.6581 27.68 72.1621 27.424V25.504C72.6741 25.76 73.2901 26 74.0101 26.224C74.7461 26.432 75.4901 26.536 76.2421 26.536C77.3141 26.536 78.0901 26.368 78.5701 26.032C79.0501 25.68 79.2901 25.216 79.2901 24.64C79.2901 24.32 79.2021 24.032 79.0261 23.776C78.8501 23.52 78.5301 23.264 78.0661 23.008C77.6181 22.752 76.9701 22.464 76.1221 22.144C75.2901 21.824 74.5781 21.504 73.9861 21.184C73.3941 20.864 72.9381 20.48 72.6181 20.032C72.2981 19.584 72.1381 19.008 72.1381 18.304C72.1381 17.216 72.5781 16.376 73.4581 15.784C74.3541 15.192 75.5221 14.896 76.9621 14.896C77.7461 14.896 78.4741 14.976 79.1461 15.136C79.8341 15.28 80.4741 15.488 81.0661 15.76L80.3461 17.44C79.9941 17.28 79.6181 17.144 79.2181 17.032C78.8341 16.904 78.4421 16.808 78.0421 16.744C77.6421 16.664 77.2341 16.624 76.8181 16.624C75.9541 16.624 75.2901 16.768 74.8261 17.056C74.3781 17.328 74.1541 17.704 74.1541 18.184C74.1541 18.536 74.2581 18.84 74.4661 19.096C74.6741 19.336 75.0181 19.576 75.4981 19.816C75.9941 20.04 76.6501 20.312 77.4661 20.632C78.2821 20.936 78.9781 21.248 79.5541 21.568C80.1301 21.888 80.5701 22.28 80.8741 22.744C81.1781 23.192 81.3301 23.76 81.3301 24.448ZM86.5504 15.112C86.5504 15.416 86.5344 15.728 86.5024 16.048C86.4864 16.368 86.4624 16.656 86.4304 16.912H86.5744C86.8464 16.464 87.1904 16.096 87.6064 15.808C88.0224 15.52 88.4864 15.304 88.9984 15.16C89.5104 15 90.0384 14.92 90.5824 14.92C91.6224 14.92 92.4864 15.088 93.1744 15.424C93.8784 15.744 94.4064 16.248 94.7584 16.936C95.1104 17.624 95.2864 18.52 95.2864 19.624V28H93.1984V19.768C93.1984 18.728 92.9664 17.952 92.5024 17.44C92.0384 16.928 91.3104 16.672 90.3184 16.672C89.3584 16.672 88.6064 16.856 88.0624 17.224C87.5184 17.576 87.1264 18.104 86.8864 18.808C86.6624 19.496 86.5504 20.344 86.5504 21.352V28H84.4384V9.76H86.5504V15.112ZM101.386 15.136V28H99.2744V15.136H101.386ZM100.354 10.312C100.674 10.312 100.954 10.424 101.194 10.648C101.45 10.856 101.578 11.192 101.578 11.656C101.578 12.104 101.45 12.44 101.194 12.664C100.954 12.888 100.674 13 100.354 13C100.002 13 99.7064 12.888 99.4664 12.664C99.2264 12.44 99.1064 12.104 99.1064 11.656C99.1064 11.192 99.2264 10.856 99.4664 10.648C99.7064 10.424 100.002 10.312 100.354 10.312ZM111.582 14.896C113.166 14.896 114.438 15.448 115.398 16.552C116.374 17.656 116.862 19.32 116.862 21.544C116.862 23 116.638 24.232 116.19 25.24C115.758 26.232 115.142 26.984 114.342 27.496C113.558 27.992 112.63 28.24 111.558 28.24C110.902 28.24 110.318 28.152 109.806 27.976C109.294 27.8 108.854 27.576 108.486 27.304C108.134 27.016 107.83 26.704 107.574 26.368H107.43C107.462 26.64 107.494 26.984 107.526 27.4C107.558 27.816 107.574 28.176 107.574 28.48V33.76H105.462V15.136H107.19L107.478 16.888H107.574C107.83 16.52 108.134 16.184 108.486 15.88C108.854 15.576 109.286 15.336 109.782 15.16C110.294 14.984 110.894 14.896 111.582 14.896ZM111.198 16.672C110.334 16.672 109.638 16.84 109.11 17.176C108.582 17.496 108.198 17.984 107.958 18.64C107.718 19.296 107.59 20.128 107.574 21.136V21.544C107.574 22.6 107.686 23.496 107.91 24.232C108.134 24.968 108.51 25.528 109.038 25.912C109.582 26.296 110.318 26.488 111.246 26.488C112.03 26.488 112.67 26.272 113.166 25.84C113.678 25.408 114.054 24.824 114.294 24.088C114.55 23.336 114.678 22.48 114.678 21.52C114.678 20.048 114.39 18.872 113.814 17.992C113.254 17.112 112.382 16.672 111.198 16.672Z" fill="black"/>
</svg>
